<svg id="visual" viewBox="0 0 900 600" width="900" height="600" xmlns="http://www.w3.org/2000/svg" xmlns:xlink="http://www.w3.org/1999/xlink" version="1.1"><path d="M0 248L15 231.5C30 215 60 182 90 167.3C120 152.7 150 156.3 180 159.8C210 163.3 240 166.7 270 183.2C300 199.7 330 229.3 360 234.2C390 239 420 219 450 211.5C480 204 510 209 540 203.5C570 198 600 182 630 171.2C660 160.3 690 154.7 720 161.5C750 168.3 780 187.7 810 187C840 186.3 870 165.7 885 155.3L900 145L900 0L885 0C870 0 840 0 810 0C780 0 750 0 720 0C690 0 660 0 630 0C600 0 570 0 540 0C510 0 480 0 450 0C420 0 390 0 360 0C330 0 300 0 270 0C240 0 210 0 180 0C150 0 120 0 90 0C60 0 30 0 15 0L0 0Z" fill="#000000"></path><path d="M0 148L15 143.2C30 138.3 60 128.7 90 133.7C120 138.7 150 158.3 180 160.5C210 162.7 240 147.3 270 138.8C300 130.3 330 128.7 360 140C390 151.3 420 175.7 450 185.2C480 194.7 510 189.3 540 180.7C570 172 600 160 630 160.2C660 160.3 690 172.7 720 177C750 181.3 780 177.7 810 169C840 160.3 870 146.7 885 139.8L900 133L900 0L885 0C870 0 840 0 810 0C780 0 750 0 720 0C690 0 660 0 630 0C600 0 570 0 540 0C510 0 480 0 450 0C420 0 390 0 360 0C330 0 300 0 270 0C240 0 210 0 180 0C150 0 120 0 90 0C60 0 30 0 15 0L0 0Z" fill="#3b1830"></path><path d="M0 137L15 133.5C30 130 60 123 90 130.7C120 138.3 150 160.7 180 169C210 177.3 240 171.7 270 160.3C300 149 330 132 360 121C390 110 420 105 450 105C480 105 510 110 540 118.8C570 127.7 600 140.3 630 140.3C660 140.3 690 127.7 720 117.7C750 107.7 780 100.3 810 97.7C840 95 870 97 885 98L900 99L900 0L885 0C870 0 840 0 810 0C780 0 750 0 720 0C690 0 660 0 630 0C600 0 570 0 540 0C510 0 480 0 450 0C420 0 390 0 360 0C330 0 300 0 270 0C240 0 210 0 180 0C150 0 120 0 90 0C60 0 30 0 15 0L0 0Z" fill="#5d3751"></path><path d="M0 73L15 83.5C30 94 60 115 90 114.2C120 113.3 150 90.7 180 82.5C210 74.3 240 80.7 270 88.8C300 97 330 107 360 115.8C390 124.7 420 132.3 450 129.5C480 126.7 510 113.3 540 106.2C570 99 600 98 630 99.2C660 100.3 690 103.7 720 108.3C750 113 780 119 810 123.8C840 128.7 870 132.3 885 134.2L900 136L900 0L885 0C870 0 840 0 810 0C780 0 750 0 720 0C690 0 660 0 630 0C600 0 570 0 540 0C510 0 480 0 450 0C420 0 390 0 360 0C330 0 300 0 270 0C240 0 210 0 180 0C150 0 120 0 90 0C60 0 30 0 15 0L0 0Z" fill="#815974"></path><path d="M0 86L15 83.5C30 81 60 76 90 69.5C120 63 150 55 180 58.8C210 62.7 240 78.3 270 80.8C300 83.3 330 72.7 360 71.2C390 69.7 420 77.3 450 84.3C480 91.3 510 97.7 540 96C570 94.3 600 84.7 630 84.7C660 84.7 690 94.3 720 95.3C750 96.3 780 88.7 810 79.3C840 70 870 59 885 53.5L900 48L900 0L885 0C870 0 840 0 810 0C780 0 750 0 720 0C690 0 660 0 630 0C600 0 570 0 540 0C510 0 480 0 450 0C420 0 390 0 360 0C330 0 300 0 270 0C240 0 210 0 180 0C150 0 120 0 90 0C60 0 30 0 15 0L0 0Z" fill="#a77d98"></path><path d="M0 55L15 56.3C30 57.7 60 60.3 90 54.8C120 49.3 150 35.7 180 29.5C210 23.3 240 24.7 270 29.5C300 34.3 330 42.7 360 46.7C390 50.7 420 50.3 450 52.3C480 54.3 510 58.7 540 61.3C570 64 600 65 630 59.3C660 53.7 690 41.3 720 37.3C750 33.3 780 37.7 810 44C840 50.3 870 58.7 885 62.8L900 67L900 0L885 0C870 0 840 0 810 0C780 0 750 0 720 0C690 0 660 0 630 0C600 0 570 0 540 0C510 0 480 0 450 0C420 0 390 0 360 0C330 0 300 0 270 0C240 0 210 0 180 0C150 0 120 0 90 0C60 0 30 0 15 0L0 0Z" fill="#cea2bf"></path></svg>