<svg id="visual" viewBox="0 0 900 600" width="900" height="600" xmlns="http://www.w3.org/2000/svg" xmlns:xlink="http://www.w3.org/1999/xlink" version="1.1"><rect x="0" y="0" width="900" height="600" fill="#CEA2BF"></rect><path d="M0 421L10.7 422.5C21.3 424 42.7 427 64.2 424.2C85.7 421.3 107.3 412.7 128.8 405.5C150.3 398.3 171.7 392.7 193 392C214.3 391.3 235.7 395.7 257 398.3C278.3 401 299.7 402 321.2 407.2C342.7 412.3 364.3 421.7 385.8 421.3C407.3 421 428.7 411 450 412.5C471.3 414 492.7 427 514.2 425C535.7 423 557.3 406 578.8 396C600.3 386 621.7 383 643 385.3C664.3 387.7 685.7 395.3 707 404.5C728.3 413.7 749.7 424.3 771.2 424.8C792.7 425.3 814.3 415.7 835.8 412.7C857.3 409.7 878.7 413.3 889.3 415.2L900 417L900 601L889.3 601C878.7 601 857.3 601 835.8 601C814.3 601 792.7 601 771.2 601C749.7 601 728.3 601 707 601C685.7 601 664.3 601 643 601C621.7 601 600.3 601 578.8 601C557.3 601 535.7 601 514.2 601C492.7 601 471.3 601 450 601C428.7 601 407.3 601 385.8 601C364.3 601 342.7 601 321.2 601C299.7 601 278.3 601 257 601C235.7 601 214.3 601 193 601C171.7 601 150.3 601 128.8 601C107.3 601 85.7 601 64.2 601C42.7 601 21.3 601 10.7 601L0 601Z" fill="#cea2bf"></path><path d="M0 402L10.7 404.2C21.3 406.3 42.7 410.7 64.2 418.7C85.7 426.7 107.3 438.3 128.8 444.8C150.3 451.3 171.7 452.7 193 448.8C214.3 445 235.7 436 257 439.7C278.3 443.3 299.7 459.7 321.2 459.7C342.7 459.7 364.3 443.3 385.8 434.7C407.3 426 428.7 425 450 433.7C471.3 442.3 492.7 460.7 514.2 469.7C535.7 478.7 557.3 478.3 578.8 477.5C600.3 476.7 621.7 475.3 643 469.8C664.3 464.3 685.7 454.7 707 443.3C728.3 432 749.7 419 771.2 423.7C792.7 428.3 814.3 450.7 835.8 454.2C857.3 457.7 878.7 442.3 889.3 434.7L900 427L900 601L889.3 601C878.7 601 857.3 601 835.8 601C814.3 601 792.7 601 771.2 601C749.7 601 728.3 601 707 601C685.7 601 664.3 601 643 601C621.7 601 600.3 601 578.8 601C557.3 601 535.7 601 514.2 601C492.7 601 471.3 601 450 601C428.7 601 407.3 601 385.8 601C364.3 601 342.7 601 321.2 601C299.7 601 278.3 601 257 601C235.7 601 214.3 601 193 601C171.7 601 150.3 601 128.8 601C107.3 601 85.7 601 64.2 601C42.7 601 21.3 601 10.7 601L0 601Z" fill="#bb8bb3"></path><path d="M0 476L10.7 471C21.3 466 42.7 456 64.2 453.3C85.7 450.7 107.3 455.3 128.8 461.7C150.3 468 171.7 476 193 473.8C214.3 471.7 235.7 459.3 257 454.7C278.3 450 299.7 453 321.2 458.2C342.7 463.3 364.3 470.7 385.8 468C407.3 465.3 428.7 452.7 450 455.7C471.3 458.7 492.7 477.3 514.2 480.7C535.7 484 557.3 472 578.8 472.8C600.3 473.7 621.7 487.3 643 487.3C664.3 487.3 685.7 473.7 707 468.5C728.3 463.3 749.7 466.7 771.2 472.7C792.7 478.7 814.3 487.3 835.8 490.8C857.3 494.3 878.7 492.7 889.3 491.8L900 491L900 601L889.3 601C878.7 601 857.3 601 835.8 601C814.3 601 792.7 601 771.2 601C749.7 601 728.3 601 707 601C685.7 601 664.3 601 643 601C621.7 601 600.3 601 578.8 601C557.3 601 535.7 601 514.2 601C492.7 601 471.3 601 450 601C428.7 601 407.3 601 385.8 601C364.3 601 342.7 601 321.2 601C299.7 601 278.3 601 257 601C235.7 601 214.3 601 193 601C171.7 601 150.3 601 128.8 601C107.3 601 85.7 601 64.2 601C42.7 601 21.3 601 10.7 601L0 601Z" fill="#a675a8"></path><path d="M0 541L10.7 540.8C21.3 540.7 42.7 540.3 64.2 540C85.7 539.7 107.3 539.3 128.8 531.2C150.3 523 171.7 507 193 503.2C214.3 499.3 235.7 507.7 257 508.5C278.3 509.3 299.7 502.7 321.2 498.5C342.7 494.3 364.3 492.7 385.8 494.5C407.3 496.3 428.7 501.7 450 510C471.3 518.3 492.7 529.7 514.2 528.8C535.7 528 557.3 515 578.8 507.8C600.3 500.7 621.7 499.3 643 496.2C664.3 493 685.7 488 707 491.5C728.3 495 749.7 507 771.2 510.7C792.7 514.3 814.3 509.7 835.8 504.3C857.3 499 878.7 493 889.3 490L900 487L900 601L889.3 601C878.7 601 857.3 601 835.8 601C814.3 601 792.7 601 771.2 601C749.7 601 728.3 601 707 601C685.7 601 664.3 601 643 601C621.7 601 600.3 601 578.8 601C557.3 601 535.7 601 514.2 601C492.7 601 471.3 601 450 601C428.7 601 407.3 601 385.8 601C364.3 601 342.7 601 321.2 601C299.7 601 278.3 601 257 601C235.7 601 214.3 601 193 601C171.7 601 150.3 601 128.8 601C107.3 601 85.7 601 64.2 601C42.7 601 21.3 601 10.7 601L0 601Z" fill="#8f609f"></path><path d="M0 531L10.7 531.7C21.3 532.3 42.7 533.7 64.2 540.3C85.7 547 107.3 559 128.8 562.2C150.3 565.3 171.7 559.7 193 553.7C214.3 547.7 235.7 541.3 257 539.5C278.3 537.7 299.7 540.3 321.2 545.5C342.7 550.7 364.3 558.3 385.8 560.8C407.3 563.3 428.7 560.7 450 555.2C471.3 549.7 492.7 541.3 514.2 542C535.7 542.7 557.3 552.3 578.8 555.2C600.3 558 621.7 554 643 554.7C664.3 555.3 685.7 560.7 707 564.2C728.3 567.7 749.7 569.3 771.2 565.7C792.7 562 814.3 553 835.8 548.7C857.3 544.3 878.7 544.7 889.3 544.8L900 545L900 601L889.3 601C878.7 601 857.3 601 835.8 601C814.3 601 792.7 601 771.2 601C749.7 601 728.3 601 707 601C685.7 601 664.3 601 643 601C621.7 601 600.3 601 578.8 601C557.3 601 535.7 601 514.2 601C492.7 601 471.3 601 450 601C428.7 601 407.3 601 385.8 601C364.3 601 342.7 601 321.2 601C299.7 601 278.3 601 257 601C235.7 601 214.3 601 193 601C171.7 601 150.3 601 128.8 601C107.3 601 85.7 601 64.2 601C42.7 601 21.3 601 10.7 601L0 601Z" fill="#744d96"></path></svg>