<svg id="visual" viewBox="0 0 900 600" width="900" height="600" xmlns="http://www.w3.org/2000/svg" xmlns:xlink="http://www.w3.org/1999/xlink" version="1.1"><rect x="0" y="0" width="900" height="600" fill="#090909"></rect><path d="M0 190L15 188C30 186 60 182 90 176.5C120 171 150 164 180 158.7C210 153.3 240 149.7 270 149.3C300 149 330 152 360 167.7C390 183.3 420 211.7 450 228.5C480 245.3 510 250.7 540 246.2C570 241.7 600 227.3 630 216.2C660 205 690 197 720 189.3C750 181.7 780 174.3 810 167.2C840 160 870 153 885 149.5L900 146L900 0L885 0C870 0 840 0 810 0C780 0 750 0 720 0C690 0 660 0 630 0C600 0 570 0 540 0C510 0 480 0 450 0C420 0 390 0 360 0C330 0 300 0 270 0C240 0 210 0 180 0C150 0 120 0 90 0C60 0 30 0 15 0L0 0Z" fill="#090909"></path><path d="M0 135L15 137.2C30 139.3 60 143.7 90 146.5C120 149.3 150 150.7 180 160.7C210 170.7 240 189.3 270 195C300 200.7 330 193.3 360 185.2C390 177 420 168 450 159.2C480 150.3 510 141.7 540 137C570 132.3 600 131.7 630 138.3C660 145 690 159 720 171.3C750 183.7 780 194.3 810 200.3C840 206.3 870 207.7 885 208.3L900 209L900 0L885 0C870 0 840 0 810 0C780 0 750 0 720 0C690 0 660 0 630 0C600 0 570 0 540 0C510 0 480 0 450 0C420 0 390 0 360 0C330 0 300 0 270 0C240 0 210 0 180 0C150 0 120 0 90 0C60 0 30 0 15 0L0 0Z" fill="#2d262b"></path><path d="M0 175L15 175C30 175 60 175 90 166.5C120 158 150 141 180 130.5C210 120 240 116 270 125.3C300 134.7 330 157.3 360 164.7C390 172 420 164 450 162.8C480 161.7 510 167.3 540 158.3C570 149.3 600 125.7 630 119.5C660 113.3 690 124.7 720 125.8C750 127 780 118 810 111.2C840 104.3 870 99.7 885 97.3L900 95L900 0L885 0C870 0 840 0 810 0C780 0 750 0 720 0C690 0 660 0 630 0C600 0 570 0 540 0C510 0 480 0 450 0C420 0 390 0 360 0C330 0 300 0 270 0C240 0 210 0 180 0C150 0 120 0 90 0C60 0 30 0 15 0L0 0Z" fill="#52424c"></path><path d="M0 90L15 96.8C30 103.7 60 117.3 90 118.7C120 120 150 109 180 99.8C210 90.7 240 83.3 270 90.3C300 97.3 330 118.7 360 126.2C390 133.7 420 127.3 450 116.7C480 106 510 91 540 85.3C570 79.7 600 83.3 630 90.3C660 97.3 690 107.7 720 115C750 122.3 780 126.7 810 126.3C840 126 870 121 885 118.5L900 116L900 0L885 0C870 0 840 0 810 0C780 0 750 0 720 0C690 0 660 0 630 0C600 0 570 0 540 0C510 0 480 0 450 0C420 0 390 0 360 0C330 0 300 0 270 0C240 0 210 0 180 0C150 0 120 0 90 0C60 0 30 0 15 0L0 0Z" fill="#796070"></path><path d="M0 59L15 61.3C30 63.7 60 68.3 90 73.5C120 78.7 150 84.3 180 82C210 79.7 240 69.3 270 63.2C300 57 330 55 360 56.5C390 58 420 63 450 61.7C480 60.3 510 52.7 540 58.8C570 65 600 85 630 90.7C660 96.3 690 87.7 720 85.7C750 83.7 780 88.3 810 84.2C840 80 870 67 885 60.5L900 54L900 0L885 0C870 0 840 0 810 0C780 0 750 0 720 0C690 0 660 0 630 0C600 0 570 0 540 0C510 0 480 0 450 0C420 0 390 0 360 0C330 0 300 0 270 0C240 0 210 0 180 0C150 0 120 0 90 0C60 0 30 0 15 0L0 0Z" fill="#a28097"></path><path d="M0 43L15 43C30 43 60 43 90 44.3C120 45.7 150 48.3 180 47C210 45.7 240 40.3 270 42.8C300 45.3 330 55.7 360 60.3C390 65 420 64 450 57.2C480 50.3 510 37.7 540 34.8C570 32 600 39 630 39.5C660 40 690 34 720 36.5C750 39 780 50 810 49.2C840 48.3 870 35.7 885 29.3L900 23L900 0L885 0C870 0 840 0 810 0C780 0 750 0 720 0C690 0 660 0 630 0C600 0 570 0 540 0C510 0 480 0 450 0C420 0 390 0 360 0C330 0 300 0 270 0C240 0 210 0 180 0C150 0 120 0 90 0C60 0 30 0 15 0L0 0Z" fill="#cea2bf"></path></svg>